<?xml version="1.0" encoding="UTF-8"?>
<svg version="1.1" xmlns="http://www.w3.org/2000/svg" width="32" height="32">
<path d="M0 0 C-0.33 0.99 -0.66 1.98 -1 3 C-2.99117408 3.69258229 -4.9921136 4.35747635 -7 5 C-9.09516175 6.61809441 -9.89283932 7.51509795 -10.46875 10.12109375 C-10.54942074 15.25061182 -10.54942074 15.25061182 -7.9375 19.5625 C-4.22793965 21.37781677 -2.08316143 21.65622237 2 21 C5.68754281 18.13191114 7.60321501 15.44431588 9 11 C9.66 11 10.32 11 11 11 C11.59865471 16.98654709 11.59865471 16.98654709 9.95703125 19.765625 C7.4032367 22.85114803 5.63837766 24.81260386 1.609375 25.2734375 C-7.05997149 25.58136511 -7.05997149 25.58136511 -10.625 22.625 C-14.45795689 18.38857397 -14.38863816 15.34807028 -14.359375 9.7734375 C-13.80289254 5.47884463 -12.16828113 3.86654007 -9 1 C-6.04335481 -0.4783226 -3.25770263 -0.06032783 0 0 Z " fill="#FFFFFF" transform="translate(15,6)"/>
<path d="M0 0 C0.99 0.33 1.98 0.66 3 1 C3.33 1.99 3.66 2.98 4 4 C6.00016466 5.20882096 6.00016466 5.20882096 8 6 C7.67 6.99 7.34 7.98 7 9 C6.01 9.33 5.02 9.66 4 10 C2.79117904 12.00016466 2.79117904 12.00016466 2 14 C1.01 13.67 0.02 13.34 -1 13 C-1.33 12.01 -1.66 11.02 -2 10 C-4.00016466 8.79117904 -4.00016466 8.79117904 -6 8 C-5.67 7.01 -5.34 6.02 -5 5 C-4.01 4.67 -3.02 4.34 -2 4 C-0.79117904 1.99983534 -0.79117904 1.99983534 0 0 Z " fill="#FFFFFF" transform="translate(23,1)"/>
<path d="M0 0 C0.99 0 1.98 0 3 0 C3 1.98 3 3.96 3 6 C4.98 6 6.96 6 9 6 C9 6.99 9 7.98 9 9 C7.02 9 5.04 9 3 9 C3 10.98 3 12.96 3 15 C2.01 15 1.02 15 0 15 C0 13.02 0 11.04 0 9 C-1.98 9 -3.96 9 -6 9 C-6 8.01 -6 7.02 -6 6 C-4.02 6 -2.04 6 0 6 C0 4.02 0 2.04 0 0 Z " fill="#FFFFFF" transform="translate(12,11)"/>
</svg>
