<?xml version="1.0" encoding="UTF-8"?>
<svg width="128pt" height="128pt" version="1.1" viewBox="0 0 128 128" xmlns="http://www.w3.org/2000/svg">
 <g>
  <path d="m81.578 13.238c-15.59 0-29.402 6.0117-37.898 15.246 0.90625-0.035156 1.8203-0.050781 2.7461-0.050781 13.98 0 26.699 4.5117 35.941 11.793 9.5664 7.5352 15.484 18.031 15.484 29.703 0 6.0547-1.5898 11.793-4.457 16.965 4.0898 5.8633 13.465 10.891 26.426 6.1797-7.1719-3.082-10.793-3.9883-10.777-13.137 11.707-6.6992 19.324-17.566 19.324-29.84 0-20.348-20.961-36.859-46.789-36.859z"/>
  <path d="m46.426 33.07c25.836 0 46.785 16.508 46.785 36.859 0 20.352-20.953 36.863-46.785 36.863-3.8633 0-7.6055-0.36719-11.188-1.0625-3.6797 6.2617-13.371 12.145-27.062 7.1797 7.1797-3.082 10.793-3.9883 10.777-13.137-11.703-6.7109-19.316-17.574-19.316-29.844-0.003907-20.355 20.949-36.859 46.789-36.859z"/>
 </g>
</svg>
