<?xml version="1.0" encoding="utf-8"?>
<svg viewBox="0 0 128 128" xmlns="http://www.w3.org/2000/svg" xmlns:bx="https://boxy-svg.com">
  <defs>
    <linearGradient gradientUnits="userSpaceOnUse" x1="77.002" y1="27.425" x2="77.002" y2="109.123" id="gradient-1" gradientTransform="matrix(0.356841, 0.969547, -0.755926, 0.299691, 116.789566, -47.268279)">
      <stop offset="0" style="stop-color: rgb(62.745% 87.843% 100%)"/>
      <stop offset="1" style="stop-color: rgb(25.58% 51.438% 62.53%)"/>
    </linearGradient>
    <linearGradient gradientUnits="userSpaceOnUse" x1="23.397" y1="49.036" x2="23.397" y2="130.733" id="gradient-0" gradientTransform="matrix(0.886978, 0.479303, -0.421091, 0.839401, 53.573886, -3.81984)">
      <stop offset="0" style="stop-color: rgb(80.784% 92.941% 100%)"/>
      <stop offset="1" style="stop-color: rgb(42.158% 53.594% 59.985%)"/>
    </linearGradient>
    <style bx:fonts="Almendra SC">@import url(https://fonts.googleapis.com/css2?family=Almendra+SC%3Aital%2Cwght%400%2C400&amp;display=swap);</style>
  </defs>
  <g transform="matrix(0.8460829854011536, 0, 0, 0.8152069449424743, 7.659199466085408, 18.227089471432233)" style="">
    <path d="m81.578 13.238c-15.59 0-29.402 6.0117-37.898 15.246 0.90625-0.035156 1.8203-0.050781 2.7461-0.050781 13.98 0 26.699 4.5117 35.941 11.793 9.5664 7.5352 15.484 18.031 15.484 29.703 0 6.0547-1.5898 11.793-4.457 16.965 4.0898 5.8633 13.465 10.891 26.426 6.1797-7.1719-3.082-10.793-3.9883-10.777-13.137 11.707-6.6992 19.324-17.566 19.324-29.84 0-20.348-20.961-36.859-46.789-36.859z" style="fill: url('#gradient-1');"/>
    <path d="m46.426 33.07c25.836 0 46.785 16.508 46.785 36.859 0 20.352-20.953 36.863-46.785 36.863-3.8633 0-7.6055-0.36719-11.188-1.0625-3.6797 6.2617-13.371 12.145-27.062 7.1797 7.1797-3.082 10.793-3.9883 10.777-13.137-11.703-6.7109-19.316-17.574-19.316-29.844-0.003907-20.355 20.949-36.859 46.789-36.859z" style="fill: url('#gradient-0');"/>
  </g>
  <text style="font-family: 'Almendra SC'; font-size: 47px; font-weight: 700; text-transform: capitalize; white-space: pre;" transform="matrix(1.4629850387573242, 0, 0, 1.2131659984588623, -21.724764517687674, -17.21248296536453)" x="31.211" y="91.208">B</text>
</svg>